{
    "asset" : {
        "generator" : "Khronos glTF Blender I/O v1.6.16",
        "version" : "2.0"
    },
    "scene" : 0,
    "scenes" : [
        {
            "name" : "Scene",
            "nodes" : [
                0,
                1,
                2,
                3,
                4
            ]
        }
    ],
    "nodes" : [
        {
            "name" : "View_001",
            "rotation" : [
                0.35355308651924133,
                0.35355284810066223,
                -0.14644621312618256,
                0.8535539507865906
            ],
            "scale" : [
                0.0010000000474974513,
                0.0010000001639127731,
                0.0010000001639127731
            ],
            "translation" : [
                117.21817016601562,
                127.8309555053711,
                -28.831857681274414
            ]
        },
        {
            "name" : "Group1871011936",
            "scale" : [
                0.0010000000474974513,
                0.0010000000474974513,
                0.0010000000474974513
            ],
            "translation" : [
                11.202662467956543,
                1.0500000715255737,
                -135.59768676757812
            ]
        },
        {
            "name" : "Group1871011937",
            "scale" : [
                0.0010000000474974513,
                0.0010000000474974513,
                0.0010000000474974513
            ],
            "translation" : [
                11.202662467956543,
                1.0500000715255737,
                -131.1465301513672
            ]
        },
        {
            "mesh" : 0,
            "name" : "Windows_glass_003",
            "scale" : [
                0.0010000000474974513,
                0.0010000000474974513,
                0.0010000000474974513
            ],
            "translation" : [
                0.8954486846923828,
                0,
                -0.5940170288085938
            ]
        },
        {
            "mesh" : 1,
            "name" : "Windows_glass_004",
            "scale" : [
                0.0010000000474974513,
                0.0010000000474974513,
                0.0010000000474974513
            ],
            "translation" : [
                16.103666305541992,
                0,
                -14.707558631896973
            ]
        }
    ],
    "animations" : [
        {
            "channels" : [
                {
                    "sampler" : 0,
                    "target" : {
                        "node" : 0,
                        "path" : "translation"
                    }
                },
                {
                    "sampler" : 1,
                    "target" : {
                        "node" : 0,
                        "path" : "rotation"
                    }
                },
                {
                    "sampler" : 2,
                    "target" : {
                        "node" : 0,
                        "path" : "scale"
                    }
                }
            ],
            "name" : "View_001|Take 001|BaseLayer",
            "samplers" : [
                {
                    "input" : 7,
                    "interpolation" : "LINEAR",
                    "output" : 8
                },
                {
                    "input" : 7,
                    "interpolation" : "LINEAR",
                    "output" : 9
                },
                {
                    "input" : 7,
                    "interpolation" : "LINEAR",
                    "output" : 10
                }
            ]
        },
        {
            "channels" : [
                {
                    "sampler" : 0,
                    "target" : {
                        "node" : 1,
                        "path" : "translation"
                    }
                },
                {
                    "sampler" : 1,
                    "target" : {
                        "node" : 1,
                        "path" : "rotation"
                    }
                },
                {
                    "sampler" : 2,
                    "target" : {
                        "node" : 1,
                        "path" : "scale"
                    }
                }
            ],
            "name" : "Group1871011936|Take 001|BaseLayer",
            "samplers" : [
                {
                    "input" : 11,
                    "interpolation" : "STEP",
                    "output" : 12
                },
                {
                    "input" : 11,
                    "interpolation" : "STEP",
                    "output" : 13
                },
                {
                    "input" : 11,
                    "interpolation" : "STEP",
                    "output" : 14
                }
            ]
        },
        {
            "channels" : [
                {
                    "sampler" : 0,
                    "target" : {
                        "node" : 2,
                        "path" : "translation"
                    }
                },
                {
                    "sampler" : 1,
                    "target" : {
                        "node" : 2,
                        "path" : "rotation"
                    }
                },
                {
                    "sampler" : 2,
                    "target" : {
                        "node" : 2,
                        "path" : "scale"
                    }
                }
            ],
            "name" : "Group1871011937|Take 001|BaseLayer",
            "samplers" : [
                {
                    "input" : 11,
                    "interpolation" : "STEP",
                    "output" : 15
                },
                {
                    "input" : 11,
                    "interpolation" : "STEP",
                    "output" : 16
                },
                {
                    "input" : 11,
                    "interpolation" : "STEP",
                    "output" : 17
                }
            ]
        }
    ],
    "materials" : [
        {
            "alphaMode" : "BLEND",
            "doubleSided" : true,
            "name" : "Glass.001",
            "pbrMetallicRoughness" : {
                "baseColorFactor" : [
                    0.5879999995231628,
                    0.5879999995231628,
                    0.5879999995231628,
                    0.38787877559661865
                ],
                "roughnessFactor" : 0
            }
        }
    ],
    "meshes" : [
        {
            "name" : "Mesh.549",
            "primitives" : [
                {
                    "attributes" : {
                        "POSITION" : 0,
                        "NORMAL" : 1
                    },
                    "indices" : 2,
                    "material" : 0
                }
            ]
        },
        {
            "name" : "Mesh.550",
            "primitives" : [
                {
                    "attributes" : {
                        "POSITION" : 3,
                        "NORMAL" : 4,
                        "TEXCOORD_0" : 5
                    },
                    "indices" : 6,
                    "material" : 0
                }
            ]
        }
    ],
    "accessors" : [
        {
            "bufferView" : 0,
            "componentType" : 5126,
            "count" : 920,
            "max" : [
                25792.25390625,
                3150,
                21386.18359375
            ],
            "min" : [
                -25791.8125,
                0,
                -21386.177734375
            ],
            "type" : "VEC3"
        },
        {
            "bufferView" : 1,
            "componentType" : 5126,
            "count" : 920,
            "type" : "VEC3"
        },
        {
            "bufferView" : 2,
            "componentType" : 5123,
            "count" : 1740,
            "type" : "SCALAR"
        },
        {
            "bufferView" : 3,
            "componentType" : 5126,
            "count" : 72,
            "max" : [
                248.61782836914062,
                3150,
                776.7713012695312
            ],
            "min" : [
                -4950.107421875,
                0,
                292.3866271972656
            ],
            "type" : "VEC3"
        },
        {
            "bufferView" : 4,
            "componentType" : 5126,
            "count" : 72,
            "type" : "VEC3"
        },
        {
            "bufferView" : 5,
            "componentType" : 5126,
            "count" : 72,
            "type" : "VEC2"
        },
        {
            "bufferView" : 6,
            "componentType" : 5123,
            "count" : 108,
            "type" : "SCALAR"
        },
        {
            "bufferView" : 7,
            "componentType" : 5126,
            "count" : 101,
            "max" : [
                3.3666666666666667
            ],
            "min" : [
                0.03333333333333333
            ],
            "type" : "SCALAR"
        },
        {
            "bufferView" : 8,
            "componentType" : 5126,
            "count" : 101,
            "type" : "VEC3"
        },
        {
            "bufferView" : 9,
            "componentType" : 5126,
            "count" : 101,
            "type" : "VEC4"
        },
        {
            "bufferView" : 10,
            "componentType" : 5126,
            "count" : 101,
            "type" : "VEC3"
        },
        {
            "bufferView" : 11,
            "componentType" : 5126,
            "count" : 1,
            "max" : [
                0.03333333333333333
            ],
            "min" : [
                0.03333333333333333
            ],
            "type" : "SCALAR"
        },
        {
            "bufferView" : 12,
            "componentType" : 5126,
            "count" : 1,
            "type" : "VEC3"
        },
        {
            "bufferView" : 13,
            "componentType" : 5126,
            "count" : 1,
            "type" : "VEC4"
        },
        {
            "bufferView" : 14,
            "componentType" : 5126,
            "count" : 1,
            "type" : "VEC3"
        },
        {
            "bufferView" : 15,
            "componentType" : 5126,
            "count" : 1,
            "type" : "VEC3"
        },
        {
            "bufferView" : 16,
            "componentType" : 5126,
            "count" : 1,
            "type" : "VEC4"
        },
        {
            "bufferView" : 17,
            "componentType" : 5126,
            "count" : 1,
            "type" : "VEC3"
        }
    ],
    "bufferViews" : [
        {
            "buffer" : 0,
            "byteLength" : 11040,
            "byteOffset" : 0
        },
        {
            "buffer" : 0,
            "byteLength" : 11040,
            "byteOffset" : 11040
        },
        {
            "buffer" : 0,
            "byteLength" : 3480,
            "byteOffset" : 22080
        },
        {
            "buffer" : 0,
            "byteLength" : 864,
            "byteOffset" : 25560
        },
        {
            "buffer" : 0,
            "byteLength" : 864,
            "byteOffset" : 26424
        },
        {
            "buffer" : 0,
            "byteLength" : 576,
            "byteOffset" : 27288
        },
        {
            "buffer" : 0,
            "byteLength" : 216,
            "byteOffset" : 27864
        },
        {
            "buffer" : 0,
            "byteLength" : 404,
            "byteOffset" : 28080
        },
        {
            "buffer" : 0,
            "byteLength" : 1212,
            "byteOffset" : 28484
        },
        {
            "buffer" : 0,
            "byteLength" : 1616,
            "byteOffset" : 29696
        },
        {
            "buffer" : 0,
            "byteLength" : 1212,
            "byteOffset" : 31312
        },
        {
            "buffer" : 0,
            "byteLength" : 4,
            "byteOffset" : 32524
        },
        {
            "buffer" : 0,
            "byteLength" : 12,
            "byteOffset" : 32528
        },
        {
            "buffer" : 0,
            "byteLength" : 16,
            "byteOffset" : 32540
        },
        {
            "buffer" : 0,
            "byteLength" : 12,
            "byteOffset" : 32556
        },
        {
            "buffer" : 0,
            "byteLength" : 12,
            "byteOffset" : 32568
        },
        {
            "buffer" : 0,
            "byteLength" : 16,
            "byteOffset" : 32580
        },
        {
            "buffer" : 0,
            "byteLength" : 12,
            "byteOffset" : 32596
        }
    ],
    "buffers" : [
        {
            "byteLength" : 32608,
            "uri" : "data:application/octet-stream;base64,"
        }
    ]
}
