{
    "asset" : {
        "generator" : "Khronos glTF Blender I/O v1.6.16",
        "version" : "2.0"
    },
    "scene" : 0,
    "scenes" : [
        {
            "name" : "Scene",
            "nodes" : [
                0,
                1,
                2
            ]
        }
    ],
    "nodes" : [
        {
            "mesh" : 0,
            "name" : "Windows_glass_003",
            "scale" : [
                0.0010000000474974513,
                0.0010000000474974513,
                0.0010000000474974513
            ],
            "translation" : [
                0.8954486846923828,
                0,
                -0.5940170288085938
            ]
        },
        {
            "mesh" : 1,
            "name" : "Glazed_partitions_glass_002",
            "scale" : [
                0.0010000000474974513,
                0.0010000000474974513,
                0.0010000000474974513
            ],
            "translation" : [
                -2.2997703552246094,
                0,
                -10.560601234436035
            ]
        },
        {
            "mesh" : 2,
            "name" : "Windows_glass_004",
            "scale" : [
                0.0010000000474974513,
                0.0010000000474974513,
                0.0010000000474974513
            ],
            "translation" : [
                16.103666305541992,
                0,
                -14.707558631896973
            ]
        }
    ],
    "materials" : [
        {
            "alphaMode" : "BLEND",
            "doubleSided" : true,
            "name" : "Glass.001",
            "pbrMetallicRoughness" : {
                "baseColorFactor" : [
                    0.5879999995231628,
                    0.5879999995231628,
                    0.5879999995231628,
                    0.22131147980690002
                ],
                "roughnessFactor" : 0
            }
        }
    ],
    "meshes" : [
        {
            "name" : "Mesh.772",
            "primitives" : [
                {
                    "attributes" : {
                        "POSITION" : 0,
                        "NORMAL" : 1
                    },
                    "indices" : 2,
                    "material" : 0
                }
            ]
        },
        {
            "name" : "Mesh.773",
            "primitives" : [
                {
                    "attributes" : {
                        "POSITION" : 3,
                        "NORMAL" : 4
                    },
                    "indices" : 5,
                    "material" : 0
                }
            ]
        },
        {
            "name" : "Mesh.774",
            "primitives" : [
                {
                    "attributes" : {
                        "POSITION" : 6,
                        "NORMAL" : 7,
                        "TEXCOORD_0" : 8
                    },
                    "indices" : 9,
                    "material" : 0
                }
            ]
        }
    ],
    "accessors" : [
        {
            "bufferView" : 0,
            "componentType" : 5126,
            "count" : 920,
            "max" : [
                25792.25390625,
                3150,
                21386.18359375
            ],
            "min" : [
                -25791.8125,
                0,
                -21386.177734375
            ],
            "type" : "VEC3"
        },
        {
            "bufferView" : 1,
            "componentType" : 5126,
            "count" : 920,
            "type" : "VEC3"
        },
        {
            "bufferView" : 2,
            "componentType" : 5123,
            "count" : 1740,
            "type" : "SCALAR"
        },
        {
            "bufferView" : 3,
            "componentType" : 5126,
            "count" : 216,
            "max" : [
                18769.3984375,
                3150,
                6758.87890625
            ],
            "min" : [
                -10758.59375,
                0,
                -3682.8515625
            ],
            "type" : "VEC3"
        },
        {
            "bufferView" : 4,
            "componentType" : 5126,
            "count" : 216,
            "type" : "VEC3"
        },
        {
            "bufferView" : 5,
            "componentType" : 5123,
            "count" : 324,
            "type" : "SCALAR"
        },
        {
            "bufferView" : 6,
            "componentType" : 5126,
            "count" : 72,
            "max" : [
                248.61782836914062,
                3150,
                776.7713012695312
            ],
            "min" : [
                -4950.107421875,
                0,
                292.3866271972656
            ],
            "type" : "VEC3"
        },
        {
            "bufferView" : 7,
            "componentType" : 5126,
            "count" : 72,
            "type" : "VEC3"
        },
        {
            "bufferView" : 8,
            "componentType" : 5126,
            "count" : 72,
            "type" : "VEC2"
        },
        {
            "bufferView" : 9,
            "componentType" : 5123,
            "count" : 108,
            "type" : "SCALAR"
        }
    ],
    "bufferViews" : [
        {
            "buffer" : 0,
            "byteLength" : 11040,
            "byteOffset" : 0
        },
        {
            "buffer" : 0,
            "byteLength" : 11040,
            "byteOffset" : 11040
        },
        {
            "buffer" : 0,
            "byteLength" : 3480,
            "byteOffset" : 22080
        },
        {
            "buffer" : 0,
            "byteLength" : 2592,
            "byteOffset" : 25560
        },
        {
            "buffer" : 0,
            "byteLength" : 2592,
            "byteOffset" : 28152
        },
        {
            "buffer" : 0,
            "byteLength" : 648,
            "byteOffset" : 30744
        },
        {
            "buffer" : 0,
            "byteLength" : 864,
            "byteOffset" : 31392
        },
        {
            "buffer" : 0,
            "byteLength" : 864,
            "byteOffset" : 32256
        },
        {
            "buffer" : 0,
            "byteLength" : 576,
            "byteOffset" : 33120
        },
        {
            "buffer" : 0,
            "byteLength" : 216,
            "byteOffset" : 33696
        }
    ],
    "buffers" : [
        {
            "byteLength" : 33912,
            "uri" : "data:application/octet-stream;base64,"
        }
    ]
}
